<svg xmlns="http://www.w3.org/2000/svg" viewBox="0 0 300 300">
  <g fill="#1773a3">
    <path d="M252.39 194.26v-26.486l-84.338-47.745V74.375s.488-16.38-18.052-18.122c-18.54 1.742-18.052 18.122-18.052 18.122v45.654L47.61 167.774v26.486l86.08-24.744v42.518l-31.365 13.591v18.123h95.35v-18.123l-31.365-13.591v-42.518Z"/>
    <path d="M150 300C67.29 300 0 232.71 0 150S67.29 0 150 0s150 67.29 150 150-67.29 150-150 150Zm0-283.019C76.653 16.981 16.981 76.653 16.981 150S76.653 283.019 150 283.019 283.019 223.347 283.019 150 223.347 16.981 150 16.981Z"/>
  </g>
</svg>
