<svg xmlns="http://www.w3.org/2000/svg" viewBox="0 0 351.48 325.67">
  <g fill="#CE914D">
    <path d="m223.5 173.39 12.24-20.1H339S197.1 140.13 197.29 140s48.13-4.52 48.13-4.52l29.23-54h72.83L237.94 63.61l46.77-.45L313.29 10l38.19-10h-96.06L144.48 72.42s-17.83 10-29.38 26.74L140.9 119l56.2-9.81s5.93-1.81 11.35 3.87l-41.74 22.78Z"/>
    <path d="M0 85.16h91.94L110.81 98s-17.13-2.61-24.2 6.29l38.71 44.13H63.58l-24.48-49L35.23 97Zm125.32 65-124.16 16h72.39L103 220.84l46 3.68L4.94 237.68h106.64l11 22.45h89.07s60.06-28.71 11.09-84.71l-93.32-26.07 18.16 10.13v34.07s-5.09 1.61-9.22-5.36Z"/>
    <path d="M125.84 284.61a72.94 72.94 0 0 1 5.86-.35l2.78-.09h2.21a32.11 32.11 0 0 1 8.54 1.08 18.52 18.52 0 0 1 6.78 3.41 15.85 15.85 0 0 1 4.48 6 21.81 21.81 0 0 1 1.62 8.84 29.41 29.41 0 0 1-.8 7.19 21.11 21.11 0 0 1-2.24 5.67 17.08 17.08 0 0 1-3.45 4.23 18.59 18.59 0 0 1-4.41 2.9 22.5 22.5 0 0 1-5.13 1.67 29.64 29.64 0 0 1-5.61.53h-9.68V291Zm10.59 10.07v24.67a16.17 16.17 0 0 0 4.91-1 11 11 0 0 0 3.36-2 9.56 9.56 0 0 0 2.08-2.75 14.14 14.14 0 0 0 1.13-3.15 19 19 0 0 0 .46-3.2c0-1.06.08-2 .08-2.93a31.07 31.07 0 0 0-.48-5.67 11.1 11.1 0 0 0-1.8-4.45 8.52 8.52 0 0 0-3.66-2.9 15.08 15.08 0 0 0-6-1h-.61Z"/>
    <path d="M159.06 325.67 170 290.36l1-5.77 10.4-.86 13.17 41.94h-9.41l-3.19-11.74h-10.81l-3.1 11.74Zm17.49-37.43-1.45 10.21-2.31 9.46h7.53l-2.32-9.46Z"/>
    <path d="M207.6 325.67H198V291l-1-5.94a70.75 70.75 0 0 1 5.89-.66c1.05-.07 2.05-.14 3-.18s1.8-.07 2.52-.07a35.59 35.59 0 0 1 6.54.59 17.9 17.9 0 0 1 5.53 2 10.77 10.77 0 0 1 3.82 3.61 10.12 10.12 0 0 1 1.43 5.54 13.66 13.66 0 0 1-1.29 6.24 10.69 10.69 0 0 1-3.67 4.11 16.86 16.86 0 0 1-5.71 2.32 39.59 39.59 0 0 1-7.37.88Zm0-31.07v9a18.47 18.47 0 0 0 3.77-.54 7.65 7.65 0 0 0 2.79-1.29 5.46 5.46 0 0 0 1.73-2.25 8.75 8.75 0 0 0 .59-3.45 6 6 0 0 0-.63-2.86 5.76 5.76 0 0 0-1.64-1.94 6.51 6.51 0 0 0-2.24-1.1 9.15 9.15 0 0 0-2.47-.35h-1.09c-.41 0-.83.06-1.25.11Z"/>
  </g>
</svg>
