<?xml version="1.0" standalone="no"?>
<!DOCTYPE svg PUBLIC "-//W3C//DTD SVG 20010904//EN"
 "http://www.w3.org/TR/2001/REC-SVG-20010904/DTD/svg10.dtd">
<svg version="1.0" xmlns="http://www.w3.org/2000/svg"
 width="700.000000pt" height="700.000000pt" viewBox="0 0 700.000000 700.000000"
 preserveAspectRatio="xMidYMid meet">
<metadata>
Created by potrace 1.14, written by Peter Selinger 2001-2017
</metadata>
<g transform="translate(0.000000,700.000000) scale(0.100000,-0.100000)"
fill="#000000" stroke="none">
<path d="M3278 6996 c-1 -2 -42 -6 -89 -10 -47 -4 -95 -8 -105 -10 -10 -2 -46
-7 -79 -11 -59 -7 -79 -10 -125 -20 -34 -7 -69 -14 -105 -21 -63 -11 -235 -57
-340 -91 -435 -140 -847 -369 -1200 -667 -87 -73 -332 -319 -407 -406 -401
-472 -696 -1112 -782 -1695 -2 -16 -8 -50 -12 -75 -21 -131 -29 -273 -29 -495
1 -196 6 -309 20 -412 10 -67 14 -99 20 -148 4 -27 10 -66 15 -85 5 -19 12
-48 14 -65 9 -48 13 -65 36 -155 21 -86 74 -259 89 -295 5 -11 28 -69 51 -130
76 -197 203 -439 333 -635 149 -224 278 -379 472 -569 79 -78 114 -110 225
-205 49 -42 186 -143 265 -196 44 -29 99 -66 122 -81 23 -16 44 -29 47 -29 4
0 25 -12 48 -26 133 -84 457 -228 658 -292 168 -53 243 -73 365 -98 135 -27
153 -30 224 -40 25 -3 57 -8 71 -10 167 -26 633 -25 848 2 83 10 293 47 347
61 33 8 68 16 77 18 43 9 183 51 285 86 663 229 1243 652 1664 1214 50 66 179
253 179 259 0 2 19 35 42 72 222 365 405 911 453 1349 4 33 9 71 11 85 9 46
11 524 4 605 -15 153 -21 210 -25 225 -2 8 -7 35 -10 60 -17 122 -62 312 -107
460 -134 432 -336 813 -626 1177 -78 97 -347 377 -446 463 -58 50 -317 243
-349 259 -15 8 -27 18 -27 23 0 4 -4 8 -8 8 -5 0 -51 26 -103 57 -362 218
-831 389 -1234 449 -27 4 -57 9 -65 10 -8 2 -42 6 -76 9 -33 4 -74 9 -90 11
-33 5 -540 14 -546 10z m432 -400 c58 -4 119 -9 137 -11 610 -80 1101 -282
1571 -647 208 -162 474 -445 633 -673 110 -158 243 -398 302 -545 10 -25 23
-54 28 -65 34 -78 123 -354 134 -418 3 -18 10 -48 15 -68 12 -42 36 -182 45
-254 4 -27 8 -61 10 -74 16 -100 22 -365 11 -541 -7 -116 -8 -129 -27 -255
-18 -119 -20 -127 -40 -220 -107 -481 -341 -953 -657 -1325 -83 -97 -306 -317
-402 -396 -273 -224 -574 -397 -903 -519 -99 -36 -307 -99 -362 -108 -16 -3
-61 -12 -100 -21 -73 -15 -106 -21 -190 -31 -27 -4 -61 -8 -75 -11 -40 -6
-257 -17 -350 -17 -94 0 -304 11 -340 18 -13 3 -44 7 -69 10 -25 3 -59 8 -76
11 -46 8 -167 33 -190 38 -11 2 -41 9 -66 15 -222 51 -550 181 -759 301 -41
23 -84 48 -95 54 -11 6 -63 40 -115 75 -612 413 -1050 1006 -1255 1700 -39
132 -90 367 -100 460 -4 31 -8 63 -10 71 -6 24 -19 266 -18 360 1 663 220
1316 618 1845 119 158 134 174 295 335 159 159 174 172 335 294 287 217 615
383 956 485 126 38 315 82 404 95 22 3 56 8 75 11 56 9 108 14 220 21 58 3
106 7 107 8 4 3 209 -2 303 -8z"/>
<path d="M3424 5675 c-175 -37 -294 -152 -333 -321 -9 -35 -12 -215 -13 -602
l0 -552 -85 -50 c-47 -28 -86 -50 -88 -50 -2 0 -61 -33 -132 -73 -70 -41 -148
-85 -173 -99 -25 -14 -166 -94 -315 -178 -148 -84 -288 -163 -310 -175 -22
-13 -121 -69 -220 -125 -99 -56 -285 -161 -412 -234 l-233 -131 0 -308 0 -307
22 4 c24 5 817 232 928 266 36 11 74 22 85 25 11 2 162 45 335 95 173 51 329
95 345 100 17 4 80 22 140 40 61 18 120 34 133 37 l22 5 0 -494 0 -495 -302
-131 c-167 -72 -331 -143 -365 -158 -58 -24 -63 -29 -64 -58 0 -34 0 -364 1
-383 0 -8 277 -11 1110 -11 l1110 0 0 22 c1 33 1 348 1 377 -1 22 -10 30 -53
49 -29 12 -66 28 -83 36 -16 7 -133 58 -260 112 -126 55 -254 110 -282 123
l-53 23 0 493 c0 271 4 493 8 493 4 0 228 -63 497 -141 270 -78 519 -149 555
-159 36 -9 137 -39 225 -65 88 -26 198 -57 245 -70 47 -13 171 -48 277 -79
106 -31 195 -56 198 -56 3 0 5 139 5 308 l0 308 -247 139 c-136 77 -272 154
-302 171 -31 17 -141 79 -246 139 -104 59 -206 117 -225 128 -19 11 -154 87
-300 170 -146 82 -285 161 -310 175 -25 14 -107 60 -182 103 -75 44 -141 79
-147 79 -5 0 -9 218 -10 563 0 474 -3 571 -16 620 -36 139 -132 239 -272 286
-80 27 -137 31 -209 16z"/>
</g>
</svg>
